<svg width="187" height="60" viewBox="0 0 187 60" fill="none" xmlns="http://www.w3.org/2000/svg">
<path d="M47.2912 45.4431H47.3545V45.8861L46.9115 47.4684L46.4684 48.6709L45.9621 49.6836L45.3925 50.6962L44.7596 51.519L44.0001 52.4051L43.4304 53.038L42.6077 53.8608L41.9115 54.4304L41.152 55.0633L40.2659 55.6962L39.3798 56.2658L37.9874 57.0253L36.5317 57.7215L34.3165 58.5443L32.4811 59.0507L31.0254 59.3671L28.4937 59.7469L26.7216 59.9367L25.076 60H21.8482L20.8988 59.9367L20.7722 59.6836L21.0887 59.557L24.8228 59.3038L26.0254 59.1772L27.8608 58.8608L29.4431 58.5443L31.2153 58.038L33.4937 57.2785L34.6963 56.8355L36.5317 55.9494L37.4178 55.5063L38.9368 54.6203L39.8861 54.0507L40.7722 53.4177L41.6583 52.6582L42.4811 51.962L43.2406 51.2658L44.0001 50.4431L45.3925 48.6709L46.2785 47.2152L46.7849 46.2658L47.2279 45.5063L47.2912 45.4431Z" fill="#FF0000"/>
<path d="M27.6078 3.05176e-05H27.7976L27.8609 52.1519L27.9875 52.4051L28.1141 52.4684H28.5571L29.1901 52.2152L29.3799 51.9621V22.9747L29.4432 15L29.6964 15.0633L30.8356 16.2026L31.2787 16.7089L32.0382 17.595L32.5445 18.2279L33.1141 18.7975L33.5571 19.3038L34.1268 19.8734L34.6964 20.5696L35.5192 21.519L36.4685 22.5317L36.6584 22.7215V22.8481H36.785L37.228 23.3545L37.9242 24.1772L38.4306 24.8102L38.4939 24.9367L38.5571 47.595L38.8736 47.6583L39.1901 47.4684L39.8863 46.7722L40.4559 46.076L40.8989 45.5696L41.7217 44.3671L42.6078 42.7215L43.0508 41.4557L43.2407 40.6962L43.3673 39.2405V38.1646L43.2407 36.8355L42.9242 35.5064L42.5445 34.4304L42.0382 33.4177L41.5318 32.595L40.8989 31.7089L40.266 30.8861L40.0761 30.6329L40.1394 30.5064L40.7723 31.0127L41.5951 31.7722L42.2913 32.5317L42.7344 32.9747L43.304 33.6709L44.1268 34.8102L44.823 36.1393L45.5192 37.8481L45.8989 39.3038L46.0888 41.2026V41.8988L45.8989 43.6709L45.5825 44.8734L45.2027 45.8228L44.823 46.7089L44.2533 47.7848L43.6204 48.6709L43.1774 49.2405L42.4812 50.1266L42.0382 50.5696H41.9116L41.8483 50.7595L41.3419 51.2026L40.8989 51.6456L40.0128 52.3418L38.747 53.2279L37.6711 53.8608L37.0382 54.2405L35.5825 55L33.5571 55.8228L32.1647 56.2658L30.266 56.7722L28.4306 57.0886L25.6457 57.4051L24.823 57.4684H21.2787L19.8863 57.2785L17.8609 57.0886L15.6457 56.6456L14.6331 56.3291L13.8736 56.1393L12.6078 55.6962L10.709 54.8734L9.25334 54.1139L7.92423 53.2912L6.97486 52.6583L5.83562 51.7722L5.07613 51.076L4.12676 50.1899L3.55714 49.4937L2.86094 48.5443L2.22803 47.595L1.91157 47.0886L1.65841 46.4557L1.34195 45.7595L0.962203 44.6203L0.582456 42.9747L0.519165 42.3418V40.3798L0.645747 39.4304L1.08879 37.6583L1.65841 36.3291L2.35461 35L3.17739 33.7975L3.74701 33.1646L4.31663 32.4684L5.51917 31.2659L6.40524 30.5696L6.59511 30.5064L6.46853 30.8228L5.89891 31.4557L5.01284 32.6583L4.44322 33.6076L4.06347 34.4304L3.62043 35.6329L3.24068 37.2152V40L3.62043 41.7089L4.00018 42.6583L4.50651 43.7342L5.20271 44.8734L5.70904 45.5696L6.40524 46.3924L7.29132 47.3418L7.73435 47.595L8.05081 47.7215L8.1141 47.4684L8.17739 21.4557L8.55714 20.9494L9.31663 20.0633L9.88625 19.4304L10.6457 18.6076L11.2154 17.9747L11.7217 17.3418L12.3546 16.7089L12.8609 16.076L13.6837 15.2532L14.2533 14.557L14.8863 13.8608L15.3293 13.2912L16.2154 12.4051L16.6584 11.8988L16.9749 11.519H17.1647V52.1519L17.4812 52.2785L17.9875 52.4684H18.5571L18.6204 52.4051L18.6837 9.87345L19.2533 9.24054L19.823 8.54433L20.4559 7.84813L20.8989 7.3418L21.785 6.39244L22.5445 5.56965L22.9875 5.06332L23.747 4.24054L24.1901 3.73421L25.0128 2.78484L25.3926 2.3418H25.5192L25.6457 2.08864L26.4052 1.26585L27.228 0.379777L27.6078 3.05176e-05ZM21.0888 12.6583L20.8356 12.8481V14.6203L20.9622 14.7469H22.9242L23.2407 14.3038V13.038L22.8609 12.6583H21.0888ZM23.8103 12.6583L23.4938 13.1013L23.5571 14.557L23.6837 14.7469H25.4559L25.709 14.6203L25.7723 14.4304V12.9114L25.4559 12.6583H23.8103ZM20.9622 15.3165L20.8356 15.3798V17.2152L21.0255 17.3418H22.8609L23.1774 17.0886L23.2407 16.9621V15.8228L23.0508 15.3798L22.8609 15.3165H20.9622ZM23.6837 15.3165L23.4938 15.8228L23.5571 17.1519L23.747 17.3418H25.5192L25.7723 17.1519V15.5064L25.709 15.3798L25.3926 15.3165H23.6837Z" fill="#FF0000"/>
<path d="M54.3976 45V21.9963H64.5711C65.6294 21.9963 66.6014 22.2123 67.487 22.6443C68.3942 23.0763 69.1718 23.6594 69.8198 24.3938C70.4894 25.1282 70.997 25.949 71.3426 26.8562C71.7098 27.7634 71.8934 28.6922 71.8934 29.6426C71.8934 30.6146 71.7206 31.5542 71.375 32.4613C71.051 33.3469 70.5758 34.1245 69.9494 34.7941C69.323 35.4637 68.5886 35.9821 67.7462 36.3493L72.995 45H68.0702L63.3399 37.2889H58.8687V45H54.3976ZM58.8687 33.3685H64.4739C65.0354 33.3685 65.5322 33.2065 65.9642 32.8825C66.3962 32.5369 66.7418 32.0834 67.001 31.5218C67.2602 30.9602 67.3898 30.3338 67.3898 29.6426C67.3898 28.9082 67.2386 28.271 66.9362 27.731C66.6338 27.1694 66.245 26.7266 65.7698 26.4026C65.3162 26.0786 64.8195 25.9166 64.2795 25.9166H58.8687V33.3685Z" fill="black"/>
<path d="M73.3976 45V21.9963H83.5711C84.6294 21.9963 85.6014 22.2123 86.487 22.6443C87.3942 23.0763 88.1718 23.6594 88.8198 24.3938C89.4894 25.1282 89.997 25.949 90.3426 26.8562C90.7098 27.7634 90.8934 28.6922 90.8934 29.6426C90.8934 30.6146 90.7206 31.5542 90.375 32.4613C90.051 33.3469 89.5758 34.1245 88.9494 34.7941C88.323 35.4637 87.5886 35.9821 86.7462 36.3493L91.995 45H87.0702L82.3399 37.2889H77.8687V45H73.3976ZM77.8687 33.3685H83.4739C84.0354 33.3685 84.5322 33.2065 84.9642 32.8825C85.3962 32.5369 85.7418 32.0834 86.001 31.5218C86.2602 30.9602 86.3898 30.3338 86.3898 29.6426C86.3898 28.9082 86.2386 28.271 85.9362 27.731C85.6338 27.1694 85.245 26.7266 84.7698 26.4026C84.3162 26.0786 83.8195 25.9166 83.2795 25.9166H77.8687V33.3685Z" fill="black"/>
<path d="M95.3976 45V21.996H110.852V25.9164H99.8688V31.8456H109.006V35.4744H99.8688V45H95.3976Z" fill="black"/>
<path d="M129.975 41.0796V45H114.002V21.996H129.684V25.9164H118.473V31.4568H128.161V35.0856H118.473V41.0796H129.975Z" fill="black"/>
<path d="M133.461 45V21.996H137.932V41.0796H149.661V45H133.461Z" fill="black"/>
<path d="M152.382 45V21.996H156.854V45H152.382Z" fill="black"/>
<path d="M161.653 45V21.996H171.405C172.464 21.996 173.436 22.212 174.321 22.644C175.207 23.076 175.974 23.6592 176.622 24.3936C177.291 25.128 177.81 25.9488 178.177 26.856C178.544 27.7632 178.728 28.692 178.728 29.6424C178.728 30.9384 178.425 32.1696 177.821 33.336C177.216 34.5024 176.384 35.4528 175.326 36.1872C174.267 36.9216 173.015 37.2888 171.567 37.2888H166.124V45H161.653ZM166.124 33.3684H171.308C171.848 33.3684 172.334 33.2172 172.766 32.9148C173.198 32.6124 173.544 32.1804 173.803 31.6188C174.062 31.0356 174.192 30.3768 174.192 29.6424C174.192 28.8432 174.041 28.1628 173.738 27.6012C173.457 27.0396 173.079 26.6184 172.604 26.3376C172.151 26.0568 171.654 25.9164 171.114 25.9164H166.124V33.3684Z" fill="black"/>
<path d="M181.84 45V21.996H186.311V45H181.84Z" fill="black"/>
</svg>